<svg width="24" height="25" viewBox="0 0 24 25" fill="none" xmlns="http://www.w3.org/2000/svg">
<g clip-path="url(#clip0_40002040_6762)">
<path d="M12 24.5C18.6274 24.5 24 19.1274 24 12.5C24 5.87258 18.6274 0.5 12 0.5C5.37258 0.5 0 5.87258 0 12.5C0 19.1274 5.37258 24.5 12 24.5Z" fill="#627EEA"/>
<path d="M12.3735 3.5V10.1525L17.9963 12.665L12.3735 3.5Z" fill="white" fill-opacity="0.602"/>
<path d="M12.3735 3.5L6.75 12.665L12.3735 10.1525V3.5Z" fill="white"/>
<path d="M12.3735 16.9762V21.4964L18 13.7122L12.3735 16.9762Z" fill="white" fill-opacity="0.602"/>
<path d="M12.3735 21.4964V16.9754L6.75 13.7122L12.3735 21.4964Z" fill="white"/>
<path d="M12.3735 15.9298L17.9963 12.6651L12.3735 10.1541V15.9298Z" fill="white" fill-opacity="0.2"/>
<path d="M6.75 12.6651L12.3735 15.9298V10.1541L6.75 12.6651Z" fill="white" fill-opacity="0.602"/>
</g>
<defs>
<clipPath id="clip0_40002040_6762">
<path d="M0 12.5C0 5.87258 5.37258 0.5 12 0.5C18.6274 0.5 24 5.87258 24 12.5C24 19.1274 18.6274 24.5 12 24.5C5.37258 24.5 0 19.1274 0 12.5Z" fill="white"/>
</clipPath>
</defs>
</svg>
